HIERARCHY
ROOT Hips
{
	OFFSET 0.000000 0.000000 0.000000
	CHANNELS 6 Xposition Yposition Zposition Zrotation Yrotation Xrotation 
	JOINT LHipJoint
	{
		OFFSET 0.000000 0.000000 0.000000
		CHANNELS 3 Zrotation Yrotation Xrotation
		JOINT LeftUpLeg
		{
			OFFSET 1.363060 -1.794630 0.839290
			CHANNELS 3 Zrotation Yrotation Xrotation
			JOINT LeftLeg
			{
				OFFSET 2.448110 -6.726130 0.000000
				CHANNELS 3 Zrotation Yrotation Xrotation
				JOINT LeftFoot
				{
					OFFSET 2.562200 -7.039590 0.000000
					CHANNELS 3 Zrotation Yrotation Xrotation
					JOINT LeftToeBase
					{
						OFFSET 0.157640 -0.433110 2.322550
						CHANNELS 3 Zrotation Yrotation Xrotation
						End Site
						{
							OFFSET 0.000000 0.000000 0.000000
						}
					}
				}
			}
		}
	}
	JOINT RHipJoint
	{
		OFFSET 0.000000 0.000000 0.000000
		CHANNELS 3 Zrotation Yrotation Xrotation
		JOINT RightUpLeg
		{
			OFFSET -1.305520 -1.794630 0.839290
			CHANNELS 3 Zrotation Yrotation Xrotation
			JOINT RightLeg
			{
				OFFSET -2.542530 -6.985550 0.000000
				CHANNELS 3 Zrotation Yrotation Xrotation
				JOINT RightFoot
				{
					OFFSET -2.568260 -7.056230 0.000000
					CHANNELS 3 Zrotation Yrotation Xrotation
					JOINT RightToeBase
					{
						OFFSET -0.164730 -0.452590 2.363150
						CHANNELS 3 Zrotation Yrotation Xrotation
						End Site
						{
							OFFSET 0.000000 0.000000 0.000000
						}
					}
				}
			}
		}
	}
	JOINT LowerBack
	{
		OFFSET 0.000000 0.000000 0.000000
		CHANNELS 3 Zrotation Yrotation Xrotation
		JOINT Spine
		{
			OFFSET 0.028270 2.035590 -0.193380
			CHANNELS 3 Zrotation Yrotation Xrotation
			JOINT Spine1
			{
				OFFSET 0.056720 2.048850 -0.042750
				CHANNELS 3 Zrotation Yrotation Xrotation
				JOINT Neck
				{
					OFFSET 0.000000 0.000000 0.000000
					CHANNELS 3 Zrotation Yrotation Xrotation
					JOINT Neck1
					{
						OFFSET -0.054170 1.746240 0.172020
						CHANNELS 3 Zrotation Yrotation Xrotation
						JOINT Head
						{
							OFFSET 0.104070 1.761360 -0.123970
							CHANNELS 3 Zrotation Yrotation Xrotation
							End Site
							{
								OFFSET 0.000000 0.000000 0.000000
							}
						}
					}
				}
				JOINT LeftShoulder
				{
					OFFSET 0.000000 0.000000 0.000000
					CHANNELS 3 Zrotation Yrotation Xrotation
					JOINT LeftArm
					{
						OFFSET 3.362410 1.200890 -0.311210
						CHANNELS 3 Zrotation Yrotation Xrotation
						JOINT LeftForeArm
						{
							OFFSET 4.983000 -0.000000 -0.000000
							CHANNELS 3 Zrotation Yrotation Xrotation
							JOINT LeftHand
							{
								OFFSET 3.483560 -0.000000 -0.000000
								CHANNELS 3 Zrotation Yrotation Xrotation
								JOINT LeftFingerBase
								{
									OFFSET 0.000000 0.000000 0.000000
									CHANNELS 3 Zrotation Yrotation Xrotation
									JOINT LeftHandIndex1
									{
										OFFSET 0.715260 -0.000000 -0.000000
										CHANNELS 3 Zrotation Yrotation Xrotation
										End Site
										{
											OFFSET 0.000000 0.000000 0.000000
										}
									}
								}
								JOINT LThumb
								{
									OFFSET 0.000000 0.000000 0.000000
									CHANNELS 3 Zrotation Yrotation Xrotation
									End Site
									{
										OFFSET 0.000000 0.000000 0.000000
									}
								}
							}
						}
					}
				}
				JOINT RightShoulder
				{
					OFFSET 0.000000 0.000000 0.000000
					CHANNELS 3 Zrotation Yrotation Xrotation
					JOINT RightArm
					{
						OFFSET -3.136600 1.374050 -0.404650
						CHANNELS 3 Zrotation Yrotation Xrotation
						JOINT RightForeArm
						{
							OFFSET -5.241900 -0.000000 -0.000000
							CHANNELS 3 Zrotation Yrotation Xrotation
							JOINT RightHand
							{
								OFFSET -3.444170 -0.000000 -0.000000
								CHANNELS 3 Zrotation Yrotation Xrotation
								JOINT RightFingerBase
								{
									OFFSET 0.000000 0.000000 0.000000
									CHANNELS 3 Zrotation Yrotation Xrotation
									JOINT RightHandIndex1
									{
										OFFSET -0.622530 -0.000000 -0.000000
										CHANNELS 3 Zrotation Yrotation Xrotation
										End Site
										{
											OFFSET 0.000000 0.000000 0.000000
										}
									}
								}
								JOINT RThumb
								{
									OFFSET 0.000000 0.000000 0.000000
									CHANNELS 3 Zrotation Yrotation Xrotation
									End Site
									{
										OFFSET 0.000000 0.000000 0.000000
									}
								}
							}
						}
					}
				}
			}
		}
	}
}
MOTION
Frames: 11
Frame Time: 0.008333
8.540756 17.143799 -16.670806 3.613340 7.431210 6.791099 -0.401741 3.793502 4.850327 -16.087073 9.204342 11.114982 -1.615900 3.762070 16.042550 -1.511641 9.357336 21.871566 0.914564 -6.091221 -17.050007 -1.272681 0.676426 -3.712872 11.498517 8.734647 -36.415105 -0.705568 -14.203540 34.611579 -1.054358 -0.421737 12.970020 -0.817390 5.764386 -16.103522 -5.944917 -2.922678 -3.198160 0.946349 -3.396191 -5.264073 6.194848 -2.662142 6.365295 -10.838365 -4.646365 -18.187775 6.663610 -3.694910 8.415574 6.551018 -2.014735 11.631237 -0.530385 -7.401953 -0.683409 -80.446655 -14.693864 43.502483 25.961873 -34.711250 -10.512667 -0.057077 1.008416 -13.595229 20.220485 -26.496234 -9.591861 -7.125000 0.000000 0.000000 -6.050082 1.040304 5.972851 -0.448645 7.099572 0.471197 78.601582 -19.148589 28.537652 -9.238020 16.249097 -2.529868 3.023431 1.523179 -6.868761 -27.445978 -18.414640 10.981967 7.125000 0.000000 0.000000 -2.432843 -51.928813 0.413533
8.525365 17.158274 -16.544390 2.836378 7.372122 6.879268 -0.480053 3.733235 4.806509 -15.245901 9.301072 9.572156 -1.141615 4.687276 18.462515 -1.613003 9.977063 22.485458 0.881084 -5.983716 -16.737254 -1.223140 0.654507 -3.651287 12.443991 8.960422 -36.418738 -0.789873 -14.318629 35.094833 -1.057728 -0.161371 12.389982 -0.730113 5.450233 -15.199436 -5.197026 -2.895499 -3.337980 1.011670 -3.424639 -5.287618 6.161802 -2.644486 6.346888 -10.671595 -4.540991 -18.318494 6.575720 -3.582657 8.447895 6.441942 -1.960969 11.675921 -0.485557 -7.414236 -0.707504 -80.576149 -14.340214 43.216907 25.743787 -34.550360 -10.391445 -0.055835 1.018351 -13.597211 20.110006 -26.652621 -9.585450 -7.125000 0.000000 0.000000 -6.135930 0.890862 6.075144 -0.371779 7.134091 0.459691 78.504030 -18.665619 28.261794 -9.138796 16.096718 -2.510197 3.035102 1.545338 -6.493174 -27.218552 -18.806862 11.105177 7.125000 0.000000 0.000000 -2.120721 -52.359684 0.367286
8.512471 17.173164 -16.413396 2.285956 7.415812 6.905231 -0.514839 3.667013 4.737192 -14.637121 9.326812 8.299780 -0.665123 5.539886 20.721007 -1.718912 10.614020 23.048383 0.869473 -5.945327 -16.625957 -1.183767 0.630175 -3.582591 13.189396 8.989178 -36.305693 -0.869041 -14.398255 35.497562 -1.074670 0.097746 11.872654 -0.636756 5.098089 -14.190126 -4.667676 -2.916982 -3.426306 1.063397 -3.501096 -5.304008 6.106252 -2.655273 6.359082 -10.464230 -4.423668 -18.453527 6.491743 -3.472934 8.511960 6.323636 -1.905582 11.735701 -0.452490 -7.423002 -0.727630 -80.661280 -13.975368 42.964708 25.480037 -34.352905 -10.242196 -0.049595 1.026550 -13.552699 19.902105 -26.789846 -9.519916 -7.125000 0.000000 0.000000 -6.279183 0.782703 6.230741 -0.302082 7.162503 0.446849 78.442140 -18.160131 27.862929 -9.062174 15.976964 -2.499930 3.022621 1.629940 -5.961191 -26.508250 -19.718168 11.321495 7.125000 0.000000 0.000000 -1.180501 -53.354140 0.229577
8.501488 17.192057 -16.278652 1.869220 7.482915 6.838251 -0.513163 3.585898 4.636303 -14.200129 9.309861 7.186034 -0.152920 6.380005 23.054850 -1.796451 11.060444 23.353484 0.873364 -5.958238 -16.663339 -1.133008 0.606569 -3.497249 13.803039 8.905860 -35.995316 -0.908821 -14.405647 35.721508 -1.114511 0.389220 11.445499 -0.583559 4.890095 -13.595649 -4.254662 -2.944579 -3.433036 1.102512 -3.574103 -5.311140 6.052511 -2.663932 6.355564 -10.373772 -4.339567 -18.485822 6.504613 -3.383196 8.555145 6.319997 -1.859517 11.762923 -0.449167 -7.423671 -0.737355 -80.732460 -13.619233 42.814233 25.188320 -34.121556 -10.069516 -0.045889 1.030863 -13.587524 19.649637 -26.842607 -9.404867 -7.125000 0.000000 0.000000 -6.437641 0.772781 6.390865 -0.262311 7.201532 0.446265 78.430444 -17.649418 27.375166 -8.999935 15.881536 -2.499099 2.999490 1.736844 -5.186949 -25.522885 -20.873469 11.490215 7.125000 0.000000 0.000000 0.215308 -54.572936 -0.094790
8.491618 17.213281 -16.141724 1.530327 7.563650 6.717153 -0.490255 3.496110 4.517031 -13.863165 9.268052 6.164657 0.380076 7.212851 25.432569 -1.857469 11.395925 23.508461 0.886283 -6.001021 -16.787293 -1.075619 0.583385 -3.402215 14.339960 8.757285 -35.570035 -0.925666 -14.370979 35.841353 -1.167686 0.699536 11.070850 -0.553747 4.766036 -13.242720 -3.909389 -2.975736 -3.392256 1.134284 -3.645101 -5.312881 5.999822 -2.671352 6.342896 -10.351387 -4.274811 -18.458295 6.573874 -3.305095 8.586172 6.383124 -1.818879 11.771186 -0.463165 -7.419624 -0.741025 -80.795515 -13.268171 42.722988 24.880318 -33.870471 -9.883193 -0.043660 1.032913 -13.668545 19.371218 -26.846185 -9.260987 -7.125000 0.000000 0.000000 -6.604953 0.820062 6.553627 -0.239964 7.246744 0.452820 78.447977 -17.135661 26.835639 -8.946072 15.800274 -2.503761 2.970158 1.856734 -4.271645 -24.377356 -22.170842 11.631219 7.125000 0.000000 0.000000 1.876395 -55.922361 -0.527845
8.482651 17.232985 -16.005864 1.178029 7.633801 6.581010 -0.454626 3.422933 4.394188 -13.518617 9.221403 5.255562 0.913869 7.955463 27.612237 -1.934643 11.807142 23.678657 0.784310 -5.630331 -15.721515 -1.024477 0.552008 -3.302006 14.877336 8.628377 -35.115593 -0.946733 -14.339612 35.972162 -1.230291 1.049850 10.591856 -0.519115 4.615166 -12.814628 -3.558479 -2.948113 -3.331425 1.160240 -3.638073 -5.313461 5.979633 -2.639732 6.286741 -10.415538 -4.280868 -18.343149 6.661751 -3.303288 8.573958 6.479202 -1.817554 11.742847 -0.480284 -7.415474 -0.740282 -80.947988 -12.929038 42.835330 24.566766 -33.599404 -9.680839 -0.061307 1.034174 -13.579373 19.458884 -26.621803 -9.247399 -7.125000 0.000000 0.000000 -6.518306 1.027158 6.443263 -0.239041 7.294608 0.466988 78.568736 -16.737028 26.553200 -8.914317 15.746080 -2.532810 3.014596 1.924511 -3.560946 -24.368427 -23.208788 12.167432 7.125000 0.000000 0.000000 2.185149 -57.133886 -0.644468
8.474036 17.252098 -15.870418 0.820519 7.699835 6.439017 -0.414049 3.356217 4.269956 -13.171120 9.172873 4.390132 1.447972 8.662985 29.714886 -2.018100 12.247811 23.854772 0.637657 -5.098845 -14.193063 -0.975765 0.517446 -3.199785 15.414888 8.507118 -34.649809 -0.969442 -14.309529 36.107235 -1.296564 1.415719 10.072285 -0.482609 4.453869 -12.357306 -3.205377 -2.897631 -3.262797 1.183935 -3.600701 -5.313589 5.972084 -2.592930 6.213674 -10.513343 -4.314464 -18.193929 6.756869 -3.331151 8.544928 6.588093 -1.831519 11.700274 -0.498618 -7.411284 -0.737823 -81.135233 -12.594544 43.026844 24.251056 -33.320567 -9.472251 -0.086683 1.035129 -13.424014 19.688916 -26.308770 -9.284480 -7.125000 0.000000 0.000000 -6.332898 1.296405 6.226683 -0.246450 7.343504 0.484118 78.729639 -16.383166 26.370739 -8.891161 15.702411 -2.571342 3.087722 1.972023 -2.929815 -24.801510 -24.145847 12.857338 7.125000 0.000000 0.000000 1.967994 -58.291784 -0.638035
8.466205 17.267062 -15.739169 0.413866 7.776655 6.356354 -0.381585 3.284260 4.142928 -12.799345 9.015197 3.460861 2.013517 9.337326 31.709765 -2.114536 12.940941 24.361058 0.416755 -3.951598 -10.964810 -0.932155 0.486060 -3.098881 16.010074 8.387423 -34.267324 -0.976626 -14.268044 36.175313 -1.324497 1.614143 9.659231 -0.463979 4.368681 -12.116352 -2.800425 -2.819435 -3.220707 1.212868 -3.535672 -5.328938 5.986292 -2.524928 6.061820 -10.561804 -4.346599 -17.967106 6.738521 -3.380834 8.547723 6.584194 -1.868515 11.651404 -0.502188 -7.421050 -0.742484 -81.391906 -12.102353 43.326663 23.995475 -33.098271 -9.297558 -0.131423 1.036368 -13.036314 20.329652 -25.856603 -9.489121 -7.125000 0.000000 0.000000 -5.871748 1.627266 5.736559 -0.207306 7.392948 0.497321 78.789036 -15.956756 24.859854 -8.551083 15.235928 -2.470109 3.129430 1.818570 -1.972969 -25.022943 -23.457017 12.608155 7.125000 0.000000 0.000000 1.466433 -57.497930 -0.464213
8.458559 17.281040 -15.608916 -0.004465 7.856038 6.287789 -0.351050 3.211058 4.015236 -12.421801 8.831585 2.516419 2.586533 10.003783 33.679035 -2.214057 13.694061 24.945800 0.178209 -2.658031 -7.332645 -0.889758 0.455428 -2.998290 16.618954 8.268101 -33.904633 -0.980121 -14.223850 36.227471 -1.343320 1.772778 9.271488 -0.449596 4.301579 -11.926812 -2.383151 -2.734655 -3.184923 1.243046 -3.464071 -5.347903 6.005671 -2.451888 5.891245 -10.598541 -4.378387 -17.721841 6.693211 -3.435701 8.558080 6.553493 -1.910983 11.601038 -0.502250 -7.434132 -0.748837 -81.665076 -11.572690 43.652216 23.754182 -32.889411 -9.130919 -0.180764 1.037675 -12.593405 21.067982 -25.371374 -9.733577 -7.125000 0.000000 0.000000 -5.345074 1.972768 5.181433 -0.157101 7.442523 0.509590 78.824313 -15.513106 23.033304 -8.135697 14.668974 -2.335665 3.163672 1.617364 -0.938725 -25.194082 -22.381838 12.135823 7.125000 0.000000 0.000000 0.897291 -56.240294 -0.250614
8.452652 17.297677 -15.481629 -0.457473 7.938065 6.227587 -0.297780 3.121365 3.862942 -12.063662 8.582833 1.552845 3.161766 10.628670 35.678084 -2.412196 14.312611 24.624263 0.429932 -3.922047 -10.895144 -0.847041 0.429473 -2.897920 17.261839 8.158202 -33.505531 -0.957731 -14.146170 36.174941 -1.347548 1.859439 8.935531 -0.456488 4.333964 -12.018303 -1.903239 -2.708575 -3.164632 1.279429 -3.466444 -5.353467 5.932036 -2.418739 5.860309 -10.491837 -4.344076 -17.693605 6.643266 -3.426587 8.581509 6.490176 -1.906403 11.602876 -0.485753 -7.433661 -0.755830 -81.835660 -11.089612 43.667626 23.542421 -32.718714 -9.002377 -0.209042 1.039926 -12.353289 21.417470 -25.190381 -9.864299 -7.125000 0.000000 0.000000 -5.096620 2.083585 4.928051 -0.119301 7.477647 0.511475 78.880171 -15.033795 22.652211 -8.048478 14.526512 -2.319713 3.199286 1.560084 -1.225781 -25.771151 -21.973292 12.199544 7.125000 0.000000 0.000000 0.085451 -55.837654 -0.028346
8.446947 17.314622 -15.354685 -0.914507 8.020399 6.168356 -0.241872 3.029758 3.707792 -11.707775 8.326521 0.587051 3.737256 11.248733 37.680589 -2.621783 14.915540 24.197534 0.738562 -5.482926 -15.292738 -0.804286 0.404062 -2.797576 17.908671 8.049397 -33.102202 -0.932336 -14.064602 36.110260 -1.350081 1.937745 8.605584 -0.465850 4.377897 -12.142414 -1.416055 -2.689308 -3.146138 1.316532 -3.477404 -5.357477 5.847605 -2.390219 5.845581 -10.368483 -4.302092 -17.690560 6.592784 -3.410047 8.606456 6.423074 -1.896361 11.610774 -0.467335 -7.431617 -0.762896 -81.994337 -10.611942 43.647036 23.334088 -32.552445 -8.878256 -0.234875 1.042286 -12.136711 21.721824 -25.044702 -9.981820 -7.125000 0.000000 0.000000 -4.880459 2.167163 4.709694 -0.082940 7.511094 0.512154 78.938418 -14.550344 22.438895 -7.999350 14.433321 -2.317515 3.235060 1.519510 -1.666202 -26.395337 -21.642123 12.325485 7.125000 0.000000 0.000000 -0.754560 -55.534254 0.194928
